<svg data-name="Layer 1" xmlns="http://www.w3.org/2000/svg" viewBox="0 0 48 48"><path d="M33.24 19.85c-6.56 0-13.19-1.83-13.19-5.33s6.63-5.34 13.19-5.34S46.42 11 46.42 14.52s-6.63 5.33-13.18 5.33zm0-8.67c-6.83 0-11.19 2-11.19 3.34s4.36 3.33 11.19 3.33 11.18-2 11.18-3.33-4.36-3.34-11.18-3.34z"/><path d="M33.24 23.81A28.31 28.31 0 0 1 24.05 22a1 1 0 0 1-.51-1.32 1 1 0 0 1 1.31-.52 26 26 0 0 0 8.39 1.69c6.59 0 11.18-2.48 11.18-4.7a1.52 1.52 0 0 0-.26-.94 1 1 0 0 1 .31-1.38 1 1 0 0 1 1.38.31 3.54 3.54 0 0 1 .57 2c0 3.72-5.79 6.67-13.18 6.67zM21.07 18H21a1 1 0 0 1-.91-1.08 5.1 5.1 0 0 1 .49-1.72 1 1 0 0 1 1.33-.47 1 1 0 0 1 .48 1.34 2.89 2.89 0 0 0-.31 1 1 1 0 0 1-1.01.93z"/><path d="M33.24 27.49a22.87 22.87 0 0 1-7.94-1.3 1 1 0 0 1 .7-1.87 21.3 21.3 0 0 0 7.24 1.17c6.59 0 11.18-2.47 11.18-4.69a2 2 0 0 0-.42-1.24 1 1 0 1 1 1.59-1.21 3.92 3.92 0 0 1 .86 2.45c-.03 3.75-5.82 6.69-13.21 6.69z"/><path d="M33.24 31.18a22.91 22.91 0 0 1-8.2-1.4 1 1 0 0 1 .73-1.86 20.91 20.91 0 0 0 7.47 1.26c6.59 0 11.18-2.47 11.18-4.7a2 2 0 0 0-.42-1.23A1 1 0 0 1 45.56 22a3.91 3.91 0 0 1 .86 2.44c0 3.8-5.79 6.74-13.18 6.74z"/><path d="M33.24 34.87a21.48 21.48 0 0 1-9.52-2 1 1 0 0 1 .92-1.77 19.57 19.57 0 0 0 8.6 1.77c6.59 0 11.18-2.48 11.18-4.7a2 2 0 0 0-.42-1.24 1 1 0 0 1 1.59-1.21 3.94 3.94 0 0 1 .86 2.45c-.03 3.76-5.82 6.7-13.21 6.7z"/><path d="M33.24 38.56c-4.89 0-9.33-1.31-11.59-3.42a1 1 0 0 1 0-1.42 1 1 0 0 1 1.41 0c1.88 1.75 5.89 2.88 10.23 2.88 6.59 0 11.18-2.48 11.18-4.7a2 2 0 0 0-.47-1.28 1 1 0 1 1 1.59-1.21 3.92 3.92 0 0 1 .86 2.45c-.03 3.76-5.82 6.7-13.21 6.7z"/><path d="M14.14 38.82A12.56 12.56 0 1 1 26.7 26.26a12.58 12.58 0 0 1-12.56 12.56zm0-23.12A10.56 10.56 0 1 0 24.7 26.26 10.58 10.58 0 0 0 14.14 15.7z"/><path d="M11.47 33.69a1 1 0 0 1-1-1V19.83a1 1 0 0 1 2 0v12.86a1 1 0 0 1-1 1z"/><path d="M13.87 26.61h-2.4a1 1 0 1 1 0-2h2.4a1.89 1.89 0 1 0 0-3.78H9.58a1 1 0 1 1 0-2h4.29a3.89 3.89 0 1 1 0 7.78z"/><path d="M15.17 33.69H9.58a1 1 0 1 1 0-2h5.59a2.54 2.54 0 0 0 0-5.08h-3.7a1 1 0 1 1 0-2h3.7a4.54 4.54 0 1 1 0 9.08z"/><path d="M12.53 35.54a1 1 0 0 1-1-1v-1.85a1 1 0 0 1 2 0v1.85a1 1 0 0 1-1 1zm0-14.71a1 1 0 0 1-1-1V18a1 1 0 0 1 2 0v1.85a1 1 0 0 1-1 .98zM15 35.54a1 1 0 0 1-1-1v-1.85a1 1 0 1 1 2 0v1.85a1 1 0 0 1-1 1zm0-14.48a1 1 0 0 1-1-1V18a1 1 0 0 1 2 0v2.08a1 1 0 0 1-1 .98z"/></svg>